<svg width="31" height="35" viewBox="0 0 31 35" fill="none"
    xmlns="http://www.w3.org/2000/svg">
    <path d="M31 12.25V33.2378C31.0015 33.4676 30.9586 33.6954 30.8735 33.9084C30.7884 34.1213 30.6629 34.3151 30.5041 34.4788C30.3453 34.6424 30.1563 34.7727 29.9479 34.8621C29.7396 34.9515 29.516 34.9984 29.2898 35H1.71016C1.2569 35 0.822173 34.8172 0.501504 34.4916C0.180836 34.1661 0.000456461 33.7246 0 33.264V1.736C0 0.79625 0.769832 0 1.71878 0H18.9444V10.5C18.9444 10.9641 19.1259 11.4092 19.4488 11.7374C19.7718 12.0656 20.2099 12.25 20.6666 12.25H31ZM31 8.75H22.3889V0.00525004L31 8.75ZM8.6111 8.75V12.25H13.7778V8.75H8.6111ZM8.6111 15.75V19.25H22.3889V15.75H8.6111ZM8.6111 22.75V26.25H22.3889V22.75H8.6111Z" fill="#FFD166"/>
</svg>
