<?xml version="1.0" encoding="utf-8"?>
<!-- Generator: Adobe Illustrator 21.0.0, SVG Export Plug-In . SVG Version: 6.00 Build 0)  -->
<svg version="1.1" id="Layer_1" xmlns="http://www.w3.org/2000/svg" xmlns:xlink="http://www.w3.org/1999/xlink" x="0px" y="0px"
	 viewBox="0 0 3500 3500.1" style="enable-background:new 0 0 3500 3500.1;" xml:space="preserve">
<style type="text/css">
	.st0{clip-path:url(#SVGID_7_);}
	.st1{clip-path:url(#SVGID_8_);}
	.st2{clip-path:url(#SVGID_9_);}
</style>
<g>
	<g>
		<defs>
			<path id="SVGID_1_" d="M1750,0c966.5,0,1750,783.5,1750,1750s-783.5,1750-1750,1750S0,2716.5,0,1750S783.5,0,1750,0L1750,0z"/>
		</defs>
		<use xlink:href="#SVGID_1_"  style="overflow:visible;fill-rule:evenodd;clip-rule:evenodd;fill:#F0B90B;"/>
		<clipPath id="SVGID_2_">
			<use xlink:href="#SVGID_1_"  style="overflow:visible;"/>
		</clipPath>
	</g>
	<g>
		<defs>
			<polygon id="SVGID_3_" points="1317.4,2461.9 1045.2,2189.6 2182.2,1052.6 2454.4,1324.8 1317.4,2461.9 			"/>
		</defs>
		<defs>
			<polygon id="SVGID_4_" points="1734.6,2879 1462.3,2606.8 2599.4,1469.8 2871.6,1742 1734.6,2879 			"/>
		</defs>
		<defs>
			<polygon id="SVGID_5_" points="1330.8,1614 1058.6,1341.8 1778.4,622 2050.7,894.2 1330.8,1614 			"/>
		</defs>
		<defs>
			<polygon id="SVGID_6_" points="900.2,2044.6 628,1772.4 900.2,1500.2 1172.4,1772.4 900.2,2044.6 			"/>
		</defs>
		<use xlink:href="#SVGID_3_"  style="overflow:visible;fill:#252525;"/>
		<use xlink:href="#SVGID_4_"  style="overflow:visible;fill:#252525;"/>
		<use xlink:href="#SVGID_5_"  style="overflow:visible;fill:#252525;"/>
		<use xlink:href="#SVGID_6_"  style="overflow:visible;fill:#252525;"/>
		<clipPath id="SVGID_7_">
			<use xlink:href="#SVGID_3_"  style="overflow:visible;"/>
		</clipPath>
		<clipPath id="SVGID_8_" class="st0">
			<use xlink:href="#SVGID_4_"  style="overflow:visible;"/>
		</clipPath>
		<clipPath id="SVGID_9_" class="st1">
			<use xlink:href="#SVGID_5_"  style="overflow:visible;"/>
		</clipPath>
		<clipPath id="SVGID_10_" class="st2">
			<use xlink:href="#SVGID_6_"  style="overflow:visible;"/>
		</clipPath>
	</g>
</g>
</svg>
